<?xml version="1.0" encoding="utf-8"?>
<!-- Generator: Adobe Illustrator 18.0.0, SVG Export Plug-In . SVG Version: 6.00 Build 0)  -->
<!DOCTYPE svg PUBLIC "-//W3C//DTD SVG 1.1//EN" "http://www.w3.org/Graphics/SVG/1.1/DTD/svg11.dtd">
<svg version="1.1" id="Layer_1" xmlns="http://www.w3.org/2000/svg" xmlns:xlink="http://www.w3.org/1999/xlink" x="0px" y="0px"
	 viewBox="0 0 80 30" enable-background="new 0 0 80 30" xml:space="preserve">
<g>
	<path fill="#FFFFFF" d="M12.3,8v14h-0.9l-4.5-9.6c-0.3-0.8-0.9-2-1.1-2.6l0,0c0,0.8,0.1,2,0.1,2.9V22H4.8V8h0.9l4.5,9.5
		c0.4,0.8,0.9,2,1.2,2.7l0,0c0-0.8-0.1-2-0.1-2.9V8H12.3z"/>
	<path fill="#FFFFFF" d="M24.7,18.4h-4.7L19.1,22h-1l3.7-14h1l3.7,14h-1L24.7,18.4z M24.5,17.6L23,11.8c-0.2-1-0.5-2-0.6-2.7h0
		c-0.2,0.6-0.4,1.7-0.6,2.7l-1.5,5.7H24.5z"/>
	<path fill="#FFFFFF" d="M37.7,8.9h-3.2V22h-0.9V8.9h-3.1V8h7.2V8.9z"/>
	<path fill="#FFFFFF" d="M49.8,21.1V22h-6.1V8h0.9v13.2H49.8z"/>
	<path fill="#FFFFFF" d="M62.1,21.2V22h-6.5V8H62v0.8h-5.4v5.6h5.1v0.8h-5.1v5.9H62.1z"/>
	<path fill="#FFFFFF" d="M74.2,22l-2.9-6.4L68.3,22h-1l3.4-7.3L67.5,8h1l2.7,5.9L74,8h1l-3.2,6.7l3.4,7.3H74.2z"/>
</g>
</svg>
